<svg xmlns="http://www.w3.org/2000/svg" version="1.1" xmlns:xlink="http://www.w3.org/1999/xlink" xmlns:svgjs="http://svgjs.dev/svgjs" width="1000" height="406" viewBox="0 0 1000 406"><g transform="matrix(1,0,0,1,-0.6060606060606801,0.5465859884826045)"><svg viewBox="0 0 396 161" data-background-color="#ffffff" preserveAspectRatio="xMidYMid meet" height="406" width="1000" xmlns="http://www.w3.org/2000/svg" xmlns:xlink="http://www.w3.org/1999/xlink"><g id="tight-bounds" transform="matrix(1,0,0,1,0.24000000000003752,-0.2167496161224136)"><svg viewBox="0 0 395.5199999999999 161.43349923224483" height="161.43349923224483" width="395.5199999999999"><g><svg viewBox="0 0 397.4975999999999 162.24066672840604" height="161.43349923224483" width="395.5199999999999"><g><rect width="397.4975999999999" height="4.969217340199212" x="0" y="89.16033825117658" fill="#99592a" opacity="1" stroke-width="0" stroke="transparent" fill-opacity="1" class="rect-o-0" data-fill-palette-color="secondary" rx="1%" id="o-0" data-palette-color="#99592a"></rect></g><g transform="matrix(1,0,0,1,0.9887999999999693,107.13797794791823)"><svg viewBox="0 0 395.52 55.1026887804878" height="55.1026887804878" width="395.52"><g id="textblocktransform"><svg viewBox="0 0 395.52 55.1026887804878" height="55.1026887804878" width="395.52" id="textblock"><g><svg viewBox="0 0 395.52 55.1026887804878" height="55.1026887804878" width="395.52"><g transform="matrix(1,0,0,1,0,0)"><svg width="395.52" viewBox="2.5 -35.04999923706055 256.2300109863281 35.70000076293945" height="55.1026887804878" data-palette-color="#c08c59"><path d="M15.65-35.05Q18.35-35.05 20.35-34.23 22.35-33.4 24.3-31.65L24.3-31.65 21.9-28.85Q20.45-30.1 19.03-30.7 17.6-31.3 15.9-31.3L15.9-31.3Q12-31.3 9.7-27.98 7.4-24.65 7.4-17.25L7.4-17.25Q7.4-10.05 9.7-6.63 12-3.2 15.9-3.2L15.9-3.2Q17.85-3.2 19.25-3.9 20.65-4.6 22.3-5.95L22.3-5.95 24.65-3.2Q20.9 0.65 15.65 0.65L15.65 0.65Q11.8 0.65 8.83-1.35 5.85-3.35 4.17-7.38 2.5-11.4 2.5-17.25L2.5-17.25Q2.5-23.05 4.23-27.05 5.95-31.05 8.93-33.05 11.9-35.05 15.65-35.05L15.65-35.05ZM41.1-35.05Q47.25-35.05 50.77-30.53 54.3-26 54.3-17.2L54.3-17.2Q54.3-8.55 50.8-3.95 47.3 0.65 41.1 0.65L41.1 0.65Q34.95 0.65 31.42-3.88 27.9-8.4 27.9-17.15L27.9-17.15Q27.9-22.9 29.52-26.93 31.15-30.95 34.12-33 37.1-35.05 41.1-35.05L41.1-35.05ZM41.1-31.35Q32.8-31.35 32.8-17.15L32.8-17.15Q32.8-3.1 41.1-3.1L41.1-3.1Q45.2-3.1 47.3-6.45 49.4-9.8 49.4-17.2L49.4-17.2Q49.4-24.55 47.27-27.95 45.15-31.35 41.1-31.35L41.1-31.35ZM65.7 0L61.05 0 61.05-34.4 77.75-34.4 77.25-30.8 65.7-30.8 65.7-18.8 75.7-18.8 75.7-15.2 65.7-15.2 65.7 0ZM87.59 0L82.94 0 82.94-34.4 99.64-34.4 99.14-30.8 87.59-30.8 87.59-18.8 97.59-18.8 97.59-15.2 87.59-15.2 87.59 0ZM104.84-34.4L121.94-34.4 121.39-30.8 109.49-30.8 109.49-19.45 119.84-19.45 119.84-15.85 109.49-15.85 109.49-3.65 122.09-3.65 122.09 0 104.84 0 104.84-34.4ZM128.29-34.4L145.39-34.4 144.84-30.8 132.94-30.8 132.94-19.45 143.29-19.45 143.29-15.85 132.94-15.85 132.94-3.65 145.54-3.65 145.54 0 128.29 0 128.29-34.4ZM159.89-35.05Q162.94-35.05 165.21-34.05 167.49-33.05 169.49-31.05L169.49-31.05 167.14-28.4Q165.44-29.9 163.76-30.63 162.09-31.35 160.14-31.35L160.14-31.35Q157.64-31.35 156.11-29.98 154.59-28.6 154.59-26.35L154.59-26.35Q154.59-24.85 155.19-23.78 155.79-22.7 157.24-21.83 158.69-20.95 161.34-20.05L161.34-20.05Q164.39-18.95 166.34-17.7 168.29-16.45 169.34-14.5 170.39-12.55 170.39-9.6L170.39-9.6Q170.39-6.65 169.04-4.33 167.69-2 165.16-0.68 162.64 0.65 159.24 0.65L159.24 0.65Q152.99 0.65 148.59-3.85L148.59-3.85 151.04-6.5Q152.89-4.85 154.81-3.98 156.74-3.1 159.09-3.1L159.09-3.1Q162.04-3.1 163.81-4.78 165.59-6.45 165.59-9.4L165.59-9.4Q165.59-11.95 164.16-13.45 162.74-14.95 158.94-16.25L158.94-16.25Q154.09-17.95 151.96-20.2 149.84-22.45 149.84-26.05L149.84-26.05Q149.84-28.6 151.11-30.68 152.39-32.75 154.69-33.9 156.99-35.05 159.89-35.05L159.89-35.05ZM198.33 0L193.68 0 193.68-16.15 181.18-16.15 181.18 0 176.53 0 176.53-34.4 181.18-34.4 181.18-19.95 193.68-19.95 193.68-34.4 198.33-34.4 198.33 0ZM218.28-35.05Q224.43-35.05 227.96-30.53 231.48-26 231.48-17.2L231.48-17.2Q231.48-8.55 227.98-3.95 224.48 0.65 218.28 0.65L218.28 0.65Q212.13 0.65 208.61-3.88 205.08-8.4 205.08-17.15L205.08-17.15Q205.08-22.9 206.71-26.93 208.33-30.95 211.31-33 214.28-35.05 218.28-35.05L218.28-35.05ZM218.28-31.35Q209.98-31.35 209.98-17.15L209.98-17.15Q209.98-3.1 218.28-3.1L218.28-3.1Q222.38-3.1 224.48-6.45 226.58-9.8 226.58-17.2L226.58-17.2Q226.58-24.55 224.46-27.95 222.33-31.35 218.28-31.35L218.28-31.35ZM246.03-34.4Q252.23-34.4 255.48-31.75 258.73-29.1 258.73-23.8L258.73-23.8Q258.73-18.2 255.4-15.48 252.08-12.75 246.18-12.75L246.18-12.75 242.88-12.75 242.88 0 238.23 0 238.23-34.4 246.03-34.4ZM246.03-16.35Q249.98-16.35 251.93-18 253.88-19.65 253.88-23.75L253.88-23.75Q253.88-27.5 251.95-29.18 250.03-30.85 246.08-30.85L246.08-30.85 242.88-30.85 242.88-16.35 246.03-16.35Z" opacity="1" transform="matrix(1,0,0,1,0,0)" fill="#c08c59" class="wordmark-text-0" data-fill-palette-color="primary" id="text-0"></path></svg></g></svg></g></svg></g></svg></g><g transform="matrix(1,0,0,1,159.02065500332844,0)"><svg viewBox="0 0 79.45628999334306 76.15191589463414" height="76.15191589463414" width="79.45628999334306"><g><svg xmlns="http://www.w3.org/2000/svg" xmlns:xlink="http://www.w3.org/1999/xlink" version="1.1" x="7.9999999999999964" y="0" viewBox="8.630000114440918 1.3559999465942383 81.26700592041016 97.5260009765625" enable-background="new 0 0 100 100" xml:space="preserve" height="76.15191589463414" width="63.45628999334307" class="icon-icon-0" data-fill-palette-color="accent" id="icon-0"><g fill="#c08c59" data-fill-palette-color="accent"><path d="M81.774 9.483L77.71 1.356H49.265l0 0H20.819l-4.064 8.127L8.63 13.547v8.127h40.622l0 0h40.645v-8.127L81.774 9.483zM55.36 13.547H43.169c-1.132 0-2.033-0.911-2.033-2.031 0-1.127 0.901-2.033 2.033-2.033H55.36c1.119 0 2.032 0.906 2.032 2.033C57.393 12.636 56.479 13.547 55.36 13.547z" fill="#c08c59" data-fill-palette-color="accent"></path></g><path d="M80.273 39.176l1.501-13.438H16.743l1.387 12.443h-0.049l2.524 21.626 1.558 14.693 2.708 24.382h48.773l0 0 2.576-24.382 4.089-35.325H80.273zM70.783 71.633H27.758l-3.245-26.716h49.36L70.783 71.633z" fill="#c08c59" data-fill-palette-color="accent"></path></svg></g></svg></g><g><rect width="82.48753500332845" height="4.969217340199212" y="70.18269855443494" x="238.4769449966715" fill="#99592a" data-fill-palette-color="secondary"></rect><rect width="82.48753500332845" height="4.969217340199212" y="70.18269855443494" x="76.53311999999998" fill="#99592a" data-fill-palette-color="secondary"></rect></g></svg></g><defs></defs></svg><rect width="395.5199999999999" height="161.43349923224483" fill="none" stroke="none" visibility="hidden"></rect></g></svg></g></svg>